<svg width="563" height="299" xmlns="http://www.w3.org/2000/svg" xmlns:xlink="http://www.w3.org/1999/xlink" xml:space="preserve" overflow="hidden"><g transform="translate(-110 -114)"><path d="M500.749 247.053C501.75 247.053 502.562 247.864 502.562 248.865L502.562 284.503C502.562 285.504 501.75 286.315 500.749 286.315L413.768 286.315C412.767 286.315 411.956 285.504 411.956 284.503L411.956 248.865C411.956 247.864 412.767 247.053 413.768 247.053Z" stroke="#666666" stroke-width="0.60404" fill="#ECECFF" transform="matrix(1.00006 0 0 1 140.204 120.04)"/><text font-family="Trebuchet MS,Trebuchet MS_MSFontService,sans-serif" font-weight="400" font-size="16" transform="matrix(0.604077 0 0 0.60404 583.597 387)">Victim</text><path d="M379.941 247.053C380.942 247.053 381.754 247.864 381.754 248.865L381.754 284.503C381.754 285.504 380.942 286.315 379.941 286.315L292.96 286.315C291.959 286.315 291.147 285.504 291.147 284.503L291.147 248.865C291.147 247.864 291.959 247.053 292.96 247.053Z" stroke="#666666" stroke-width="0.60404" fill="#ECECFF" transform="matrix(1.00006 0 0 1 140.204 120.04)"/><text font-family="Trebuchet MS,Trebuchet MS_MSFontService,sans-serif" font-weight="400" font-size="16" transform="matrix(0.604077 0 0 0.60404 450.7 387)">Public Place</text><path d="M259.133 247.053C260.134 247.053 260.945 247.864 260.945 248.865L260.945 284.503C260.945 285.504 260.134 286.315 259.133 286.315L172.152 286.315C171.151 286.315 170.339 285.504 170.339 284.503L170.339 248.865C170.339 247.864 171.151 247.053 172.152 247.053Z" stroke="#666666" stroke-width="0.60404" fill="#ECECFF" transform="matrix(1.00006 0 0 1 140.204 120.04)"/><text font-family="Trebuchet MS,Trebuchet MS_MSFontService,sans-serif" font-weight="400" font-size="16" transform="matrix(0.604077 0 0 0.60404 337.133 387)">QR Code</text><path d="M88.7939 247.053C89.7947 247.053 90.6061 247.864 90.6061 248.865L90.6061 284.503C90.6061 285.504 89.7947 286.315 88.7939 286.315L1.81212 286.315C0.811314 286.315 0 285.504 0 284.503L0 248.865C-2.68248e-16 247.864 0.811314 247.053 1.81212 247.053Z" stroke="#666666" stroke-width="0.60404" fill="#ECECFF" transform="matrix(1.00006 0 0 1 140.204 120.04)"/><text font-family="Trebuchet MS,Trebuchet MS_MSFontService,sans-serif" font-weight="400" font-size="16" transform="matrix(0.604077 0 0 0.60404 167.387 387)">Attacker</text><path d="M457.259 3.0202 457.259 247.053" stroke="#999999" stroke-width="1.20808" fill="none" transform="matrix(1.00006 0 0 1 140.204 120.04)"/><path d="M500.749 0C501.75 -5.36496e-16 502.562 0.811314 502.562 1.81212L502.562 37.4505C502.562 38.4513 501.75 39.2626 500.749 39.2626L413.768 39.2626C412.767 39.2626 411.956 38.4513 411.956 37.4505L411.956 1.81212C411.956 0.811314 412.767 0 413.768 0Z" stroke="#666666" stroke-width="0.60404" fill="#ECECFF" transform="matrix(1.00006 0 0 1 140.204 120.04)"/><text font-family="Trebuchet MS,Trebuchet MS_MSFontService,sans-serif" font-weight="400" font-size="16" transform="matrix(0.604077 0 0 0.60404 583.597 140)">Victim</text><path d="M336.451 3.0202 336.451 247.053" stroke="#999999" stroke-width="1.20808" fill="none" transform="matrix(1.00006 0 0 1 140.204 120.04)"/><path d="M379.941 0C380.942 -5.36496e-16 381.754 0.811314 381.754 1.81212L381.754 37.4505C381.754 38.4513 380.942 39.2626 379.941 39.2626L292.96 39.2626C291.959 39.2626 291.147 38.4513 291.147 37.4505L291.147 1.81212C291.147 0.811314 291.959 0 292.96 0Z" stroke="#666666" stroke-width="0.60404" fill="#ECECFF" transform="matrix(1.00006 0 0 1 140.204 120.04)"/><text font-family="Trebuchet MS,Trebuchet MS_MSFontService,sans-serif" font-weight="400" font-size="16" transform="matrix(0.604077 0 0 0.60404 450.7 140)">Public Place</text><path d="M215.642 3.0202 215.642 247.053" stroke="#999999" stroke-width="1.20808" fill="none" transform="matrix(1.00006 0 0 1 140.204 120.04)"/><path d="M259.133 0C260.134 -5.36496e-16 260.945 0.811314 260.945 1.81212L260.945 37.4505C260.945 38.4513 260.134 39.2626 259.133 39.2626L172.152 39.2626C171.151 39.2626 170.339 38.4513 170.339 37.4505L170.339 1.81212C170.339 0.811314 171.151 0 172.152 0Z" stroke="#666666" stroke-width="0.60404" fill="#ECECFF" transform="matrix(1.00006 0 0 1 140.204 120.04)"/><text font-family="Trebuchet MS,Trebuchet MS_MSFontService,sans-serif" font-weight="400" font-size="16" transform="matrix(0.604077 0 0 0.60404 337.133 140)">QR Code</text><path d="M45.303 3.0202 45.303 247.053" stroke="#999999" stroke-width="1.20808" fill="none" transform="matrix(1.00006 0 0 1 140.204 120.04)"/><path d="M88.7939 0C89.7947 -5.36496e-16 90.6061 0.811314 90.6061 1.81212L90.6061 37.4505C90.6061 38.4513 89.7947 39.2626 88.7939 39.2626L1.81212 39.2626C0.811314 39.2626 0 38.4513 0 37.4505L0 1.81212C-2.68248e-16 0.811314 0.811314 0 1.81212 0Z" stroke="#666666" stroke-width="0.60404" fill="#ECECFF" transform="matrix(1.00006 0 0 1 140.204 120.04)"/><text font-family="Trebuchet MS,Trebuchet MS_MSFontService,sans-serif" font-weight="400" font-size="16" transform="matrix(0.604077 0 0 0.60404 167.387 140)">Attacker</text><text fill="#333333" font-family="Trebuchet MS,Trebuchet MS_MSFontService,sans-serif" font-weight="400" font-size="16" transform="matrix(0.604077 0 0 0.60404 210.277 178)">generates phishing QR code</text><path d="M45.9071 71.8808 213.226 71.8808" stroke="#333333" stroke-width="0.906061" fill="none" transform="matrix(1.00006 0 0 1 140.204 120.04)"/><g><path d="M0 0 9.06061 4.5303 0 9.06061Z" stroke="#333333" stroke-width="0.906061" fill="#333333" transform="matrix(1.00006 0 0 1 346.285 187.391)"/></g><text fill="#333333" font-family="Trebuchet MS,Trebuchet MS_MSFontService,sans-serif" font-weight="400" font-size="16" transform="matrix(0.604077 0 0 0.60404 309.043 211)">displays it</text><path d="M45.9071 104.499 334.034 104.499" stroke="#333333" stroke-width="0.906061" fill="none" transform="matrix(1.00006 0 0 1 140.204 120.04)"/><g><path d="M0 0 9.06061 4.5303 0 9.06061Z" stroke="#333333" stroke-width="0.906061" fill="#333333" transform="matrix(1.00006 0 0 1 467.1 220.009)"/></g><text fill="#333333" font-family="Trebuchet MS,Trebuchet MS_MSFontService,sans-serif" font-weight="400" font-size="16" transform="matrix(0.604077 0 0 0.60404 425.932 243)">scans malicious QR code</text><path d="M456.655 137.117 218.059 137.117" stroke="#333333" stroke-width="0.906061" fill="none" transform="matrix(1.00006 0 0 1 140.204 120.04)"/><g><path d="M0 0 9.06061 4.5303 0 9.06061Z" stroke="#333333" stroke-width="0.906061" fill="#333333" transform="matrix(-1.00006 1.22465e-16 -1.22472e-16 -1 365.434 261.688)"/></g><text fill="#333333" font-family="Trebuchet MS,Trebuchet MS_MSFontService,sans-serif" font-weight="400" font-size="16" transform="matrix(0.604077 0 0 0.60404 425.63 276)">prompts for credentials</text><path d="M216.246 169.735 454.842 169.735" stroke="#333333" stroke-width="0.906061" fill="none" transform="matrix(1.00006 0 0 1 140.204 120.04)"/><g><path d="M0 0 9.06061 4.5303 0 9.06061Z" stroke="#333333" stroke-width="0.906061" fill="#333333" transform="matrix(1.00006 0 0 1 587.916 285.245)"/></g><text fill="#333333" font-family="Trebuchet MS,Trebuchet MS_MSFontService,sans-serif" font-weight="400" font-size="16" transform="matrix(0.604077 0 0 0.60404 354.349 309)">enters credentials</text><path d="M456.655 202.354 47.7192 202.354" stroke="#333333" stroke-width="0.906061" fill="none" transform="matrix(1.00006 0 0 1 140.204 120.04)"/><g><path d="M0 0 9.06061 4.5303 0 9.06061Z" stroke="#333333" stroke-width="0.906061" fill="#333333" transform="matrix(-1.00006 1.22465e-16 -1.22472e-16 -1 195.084 326.924)"/></g><text fill="#333333" font-family="Trebuchet MS,Trebuchet MS_MSFontService,sans-serif" font-weight="400" font-size="16" transform="matrix(0.604077 0 0 0.60404 328.676 341)">gains access to sensitive info</text><path d="M45.9071 234.972 454.842 234.972" stroke="#333333" stroke-width="0.906061" fill="none" transform="matrix(1.00006 0 0 1 140.204 120.04)"/><g><path d="M0 0 9.06061 4.5303 0 9.06061Z" stroke="#333333" stroke-width="0.906061" fill="#333333" transform="matrix(1.00006 0 0 1 587.916 350.482)"/></g></g></svg>